#
#
#

mtllib Tower1.mtl


#
#  Mesh
#
g  Mesh


#
#  Mesh_Claimedwall
#
usemtl  Mesh_Claimedwall

v 1.112920 2.312512 1.105194
v 1.112925 0.219688 1.105194
v 1.112918 0.219687 -1.105200
v -1.112918 2.312511 -1.105200
v 1.112922 2.312510 -1.105200
v 1.112918 0.219687 -1.105200
v 1.112918 0.219687 -1.105200
v 1.250009 0.219690 -1.250009
v -1.250005 0.219689 -1.250009
v 1.112922 2.312510 -1.105200
v -1.112918 2.312511 -1.105200
v -1.250007 2.312510 -1.250009
v 1.112920 2.312512 1.105194
v 1.250009 2.312511 -1.250009
v -1.250007 0.000001 -1.250009
v -1.250005 0.219689 -1.250009
v 1.250009 0.219690 -1.250009
v -1.250007 2.312510 -1.250009
v -1.250005 2.696923 -1.250009
v 1.250007 2.696924 -1.250009
v 1.112920 2.696923 -1.105200
v 1.250007 2.696924 -1.250009
v -1.250005 2.696923 -1.250009
v 1.112920 2.696923 -1.105200
v 1.112918 3.335566 -1.105200
v 1.112922 3.335564 1.105194
v -1.112916 2.696924 -1.105200
v -1.112914 3.335565 -1.105200
v 1.112918 3.335566 -1.105200
v -0.579220 2.829834 -0.571500
v 0.579220 2.829835 -0.571500
v 0.579220 3.335566 -0.571500
v 1.112918 3.335566 -1.105200
v -1.112914 3.335565 -1.105200
v -0.579220 3.335565 -0.571500
v 1.112922 3.335564 1.105194
v 0.579220 3.335566 -0.571500
v -0.579216 3.335565 0.571493
v -1.112914 3.335565 1.105194
v -1.112914 3.335565 -1.105200
v -1.112916 2.696924 -1.105200
v -1.112914 2.312510 1.105194
v -1.250005 0.219689 1.250002
v -1.112914 0.219689 1.105194
v -1.112918 2.312511 -1.105200
v -1.112914 0.219688 -1.105200
v -1.112914 0.219689 1.105194
v -0.579220 2.829834 -0.571500
v -0.579216 2.829834 0.571493
v 0.579224 2.829833 0.571493
v 1.250011 0.219688 1.250002
v 1.250011 0.219688 1.250002
v 1.250013 0.000000 1.250002
v 1.250007 0.000002 -1.250009
v 1.250007 2.696924 -1.250009
v 1.250011 2.696922 1.250002
v 1.250011 2.312509 1.250002
v 1.250011 2.696922 1.250002
v 0.579224 2.829833 0.571493
v 0.579224 3.335564 0.571493
v 0.579220 3.335566 -0.571500
v -1.112914 3.335565 1.105194
v 0.579224 3.335564 0.571493
v 0.579224 2.829833 0.571493
v -0.579216 2.829834 0.571493
v -0.579216 3.335565 0.571493
v -0.579220 2.829834 -0.571500
v -0.579220 3.335565 -0.571500
v -0.579216 3.335565 0.571493
v 1.112924 2.696923 1.105194
v 1.112922 3.335564 1.105194
v -1.112914 3.335565 1.105194
v -1.112914 2.696923 1.105194
v -1.112916 2.696924 -1.105200
v 1.112924 2.696923 1.105194
v -1.250005 2.696923 1.250002
v -1.250007 2.312510 -1.250009
v -1.250005 2.312510 1.250002
v -1.250005 2.696923 1.250002
v 1.250011 2.696922 1.250002
v -1.250005 2.696923 1.250002
v -1.250005 2.312510 1.250002
v -1.250007 0.000001 -1.250009
v -1.250005 0.000001 1.250002
v -1.250005 0.219689 1.250002
v 1.250013 0.000000 1.250002
v 1.250011 0.219688 1.250002
v -1.250005 0.219689 1.250002
v 1.250011 2.312509 1.250002
v -1.250005 2.312510 1.250002
v 1.112925 0.219688 1.105194
v 1.112925 0.219688 1.105194
v 1.112920 2.312512 1.105194
v -1.112914 2.312510 1.105194
v 1.112922 2.312510 -1.105200
v -1.112914 0.219688 -1.105200
v -1.112914 0.219688 -1.105200
v 1.250007 0.000002 -1.250009
v 1.250009 2.312511 -1.250009
v 1.112924 2.696923 1.105194
v 1.112920 2.696923 -1.105200
v -0.579220 3.335565 -0.571500
v -1.112914 2.696923 1.105194
v -1.112914 2.312510 1.105194
v 0.579220 2.829835 -0.571500
v 1.250009 0.219690 -1.250009
v 1.250009 2.312511 -1.250009
v 0.579220 2.829835 -0.571500
v 0.579224 3.335564 0.571493
v -0.579216 2.829834 0.571493
v -1.112914 2.696923 1.105194
v -1.250005 2.696923 -1.250009
v 1.250011 2.312509 1.250002
v -1.250005 0.219689 -1.250009
v -1.250005 0.000001 1.250002
v -1.112914 0.219689 1.105194
vn 1.000000 0.000000 -0.000001
vn 1.000000 0.000002 -0.000003
vn 0.000000 0.000000 -1.000000
vn 0.000000 0.000000 -1.000000
vn -0.000005 1.000000 0.000007
vn -0.000011 1.000000 0.000010
vn 0.000002 1.000000 0.000007
vn 0.000003 -1.000000 0.000002
vn 0.000003 -1.000000 0.000006
vn 0.000002 -1.000000 0.000001
vn -0.000003 -1.000000 -0.000005
vn -0.000004 -1.000000 -0.000002
vn 0.000000 0.000000 -1.000000
vn 0.000000 1.000000 -0.000001
vn -0.000003 1.000000 0.000003
vn -0.000002 1.000000 -0.000001
vn 1.000000 0.000003 -0.000002
vn 1.000000 0.000003 -0.000002
vn 0.000000 0.000000 -1.000000
vn 0.000000 0.000000 -1.000000
vn -0.000000 0.000000 1.000000
vn 0.000000 0.000000 1.000000
vn -0.000000 1.000000 0.000000
vn -0.000000 1.000000 0.000000
vn -0.000000 1.000000 -0.000000
vn -0.000000 1.000000 0.000001
vn -0.000001 1.000000 0.000000
vn 0.000000 1.000000 0.000000
vn -1.000000 0.000002 0.000000
vn -1.000000 0.000003 0.000000
vn 0.000003 -1.000000 0.000000
vn 0.000000 1.000000 0.000000
vn 0.000003 1.000000 -0.000000
vn -1.000000 -0.000001 0.000001
vn -1.000000 -0.000002 0.000000
vn -0.000000 1.000000 0.000001
vn 0.000001 1.000000 0.000000
vn -0.000007 1.000000 0.000000
vn 1.000000 0.000000 -0.000002
vn 1.000000 0.000009 -0.000002
vn 1.000000 0.000002 -0.000001
vn 1.000000 0.000000 -0.000002
vn 0.000000 1.000000 0.000001
vn -1.000000 0.000000 0.000003
vn -1.000000 0.000000 0.000003
vn 0.000001 1.000000 0.000000
vn -0.000000 1.000000 0.000001
vn 0.000000 0.000000 -1.000000
vn 0.000000 0.000000 -1.000000
vn 1.000000 0.000000 -0.000003
vn 1.000000 0.000000 -0.000003
vn -0.000002 1.000000 0.000000
vn -0.000003 1.000000 -0.000004
vn 0.000002 1.000000 0.000001
vn 0.000000 1.000000 0.000001
vn -1.000000 0.000002 0.000000
vn -1.000000 0.000000 0.000001
vn 0.000000 0.000000 1.000000
vn -1.000000 0.000004 0.000000
vn -1.000000 0.000000 0.000001
vn -0.000010 -1.000000 -0.000011
vn 0.000000 -1.000000 -0.000006
vn 0.000000 1.000000 -0.000000
vn 0.000000 0.000000 1.000000
vn 0.000000 0.000000 1.000000
vn 1.000000 -0.000002 0.000001
vn -0.000000 0.000000 -1.000000
vn 0.000004 1.000000 0.000003
vn 0.000002 -1.000000 0.000001
vn -0.000004 -1.000000 -0.000002
vn 0.000000 1.000000 -0.000001
vn -0.000002 1.000000 -0.000001
vn 1.000000 0.000003 -0.000002
vn -0.000000 0.000000 1.000000
vn -0.000000 1.000000 0.000000
vn -0.000000 1.000000 0.000001
vn -0.000001 1.000000 0.000000
vn -1.000000 0.000000 0.000001
vn 0.000002 1.000000 0.000007
vn -1.000000 0.000000 0.000002
vn -0.000001 1.000000 0.000002
vn 1.000000 -0.000009 -0.000001
vn 1.000000 0.000005 -0.000001
vn 0.000000 1.000000 -0.000001
vn -1.000000 0.000000 0.000003
vn -0.000000 0.000000 -1.000000
vn 1.000000 0.000000 -0.000003
vn 0.000000 1.000000 0.000001
vn -1.000000 0.000005 0.000000
vn 0.000000 0.000000 1.000000
vn -1.000000 0.000009 0.000000
vn 0.000000 1.000000 -0.000000
vt 0.000000 0.693289
vt 0.000000 0.065862
vt 0.930279 0.065737
vt 1.000000 0.693289
vt -0.000664 0.693227
vt -0.000664 0.065737
vt 0.945163 0.942075
vt 0.999999 1.000000
vt 0.000000 1.000000
vt 0.950584 0.948089
vt 0.049415 0.948090
vt 0.950583 0.051910
vt 1.000000 0.000000
vt 1.000000 0.065862
vt 1.000000 0.808536
vt 0.000000 0.808536
vt 0.052734 -0.199219
vt 0.052734 -0.046875
vt -0.794922 -0.046875
vt 0.900391 -0.199219
vt 0.900391 -0.046875
vt 0.897742 0.455511
vt 0.254980 0.455511
vt 0.254980 0.263612
vt 0.054836 0.942076
vt 0.268312 0.728598
vt 0.945165 0.057925
vt 0.731685 0.728598
vt 0.268314 0.271403
vt 0.009485 0.000000
vt 0.054752 0.054752
vt 0.054751 1.000000
vt 0.000000 0.000001
vt 0.054836 0.057925
vt 0.930279 0.693227
vt 0.731687 0.271403
vt 0.447266 0.255859
vt 0.255859 0.255859
vt 0.255859 0.904297
vt 0.447266 0.904297
vt -0.794922 -0.199219
vt 0.897742 0.263612
vt 0.049417 0.051910
f 1/1/1 2/2/2 3/3/1
f 4/4/3 5/5/4 6/6/3
f 7/7/5 8/8/6 9/9/7
f 10/10/8 11/11/9 12/9/10
f 13/12/11 10/10/8 14/8/12
f 15/13/13 16/14/13 17/2/13
f 18/4/13 19/15/13 20/16/13
f 21/7/14 22/8/15 23/9/16
f 24/17/17 25/18/18 26/19/17
f 27/20/19 28/21/20 29/18/19
f 30/22/21 31/23/22 32/24/21
f 33/7/23 34/25/24 35/26/25
f 36/27/26 33/7/23 37/28/27
f 38/29/28 35/26/25 34/25/24
f 39/19/29 40/18/30 41/17/29
f 12/30/10 11/31/9 42/32/31
f 9/9/7 43/33/32 44/34/33
f 45/35/34 46/3/35 47/2/34
f 48/26/36 49/29/37 50/36/36
f 51/13/38 8/8/6 7/7/5
f 52/14/39 53/13/40 54/33/39
f 55/16/41 56/15/42 57/4/41
f 58/13/43 22/8/15 21/7/14
f 59/37/44 60/38/45 61/39/44
f 62/34/46 36/27/26 63/36/47
f 64/22/48 65/23/49 66/24/48
f 67/40/50 68/39/51 69/38/50
f 70/20/22 71/21/22 72/18/22
f 73/34/52 74/25/53 23/9/16
f 75/27/54 73/34/52 76/33/55
f 77/1/56 78/4/57 79/15/56
f 80/15/58 81/16/22 82/1/58
f 83/33/59 84/13/60 85/14/59
f 86/13/22 87/14/22 88/2/22
f 13/12/11 89/13/61 90/33/62
f 91/27/63 44/34/33 43/33/32
f 92/14/64 93/4/65 94/5/64
f 95/35/66 1/1/1 3/3/1
f 96/14/67 4/4/3 6/6/3
f 97/25/68 7/7/5 9/9/7
f 14/8/12 10/10/8 12/9/69
f 89/13/61 13/12/11 14/8/70
f 98/33/13 15/13/13 17/2/13
f 99/1/13 18/4/13 20/16/13
f 74/25/53 21/7/71 23/9/72
f 100/41/73 24/17/17 26/19/17
f 101/17/13 27/20/19 29/18/19
f 102/42/74 30/22/21 32/24/21
f 37/28/27 33/7/75 35/26/25
f 63/36/47 36/27/76 37/28/77
f 62/34/46 38/29/28 34/25/24
f 103/41/78 39/19/29 41/17/29
f 90/9/62 12/30/10 42/32/31
f 97/25/68 9/9/79 44/34/33
f 104/1/80 45/35/34 47/2/34
f 105/28/81 48/26/36 50/36/36
f 91/27/63 51/13/38 7/7/5
f 106/2/82 52/14/39 54/33/39
f 107/1/83 55/16/41 57/4/41
f 75/27/54 58/13/43 21/7/84
f 108/40/85 59/37/44 61/39/44
f 38/29/28 62/34/46 63/36/47
f 109/42/86 64/22/48 66/24/48
f 110/37/87 67/40/50 69/38/50
f 111/17/22 70/20/22 72/18/22
f 76/33/55 73/34/52 23/9/16
f 58/13/88 75/27/54 76/33/55
f 112/16/89 77/1/56 79/15/56
f 113/4/90 80/15/58 82/1/58
f 114/2/91 83/33/59 85/14/59
f 115/33/22 86/13/22 88/2/22
f 42/43/31 13/12/11 90/33/62
f 51/13/38 91/27/92 43/33/32
f 116/6/22 92/14/64 94/5/64
